<?xml version="1.0" encoding="utf-8"?>
<!-- Generator: Adobe Illustrator 16.0.0, SVG Export Plug-In . SVG Version: 6.00 Build 0)  -->
<!DOCTYPE svg PUBLIC "-//W3C//DTD SVG 1.1//EN" "http://www.w3.org/Graphics/SVG/1.1/DTD/svg11.dtd">
<svg version="1.1" id="Camada_1" xmlns="http://www.w3.org/2000/svg" xmlns:xlink="http://www.w3.org/1999/xlink" x="0px" y="0px"
	 width="128.682px" height="18.65px" viewBox="0 0 128.682 18.65" enable-background="new 0 0 128.682 18.65" xml:space="preserve">
<path fill="#F7751E" d="M4.943,1.021c-1.993,0-3.599,1.606-3.599,3.598V14.5c0,1.984,1.606,3.602,3.599,3.602h9.893
	c1.984,0,3.59-1.617,3.59-3.602c0,0,0-11.593,0-13.479H4.943z"/>
<g>
	<path fill="#545454" d="M37.337,6.178h-6.883v8.237c-0.262,0.553-0.65,0.828-1.164,0.828c-0.525,0-0.92-0.276-1.184-0.83V6.178
		H21.21c-0.576-0.25-0.863-0.63-0.863-1.142c0-0.608,0.336-0.989,1.01-1.141h15.832C37.862,4.016,38.2,4.399,38.2,5.045
		C38.2,5.57,37.913,5.948,37.337,6.178z"/>
	<path fill="#545454" d="M59.901,6.243c-0.848,0.925-2.112,2.41-3.796,4.455c-1.621,1.977-2.894,3.454-3.818,4.431
		c-0.131,0.142-0.354,0.212-0.669,0.212c-0.283,0-0.503-0.057-0.66-0.171c-0.158-0.114-0.986-1.063-2.486-2.845
		c-1.044-1.217-2.919-3.413-5.626-6.587c-0.151-0.185-0.228-0.397-0.228-0.636c0-0.315,0.121-0.596,0.364-0.84
		s0.517-0.367,0.819-0.367c0.27,0,0.496,0.106,0.681,0.319c0.98,1.077,3.35,3.833,7.108,8.27c0.271-0.306,1.313-1.521,3.126-3.648
		l3.118-3.665c0.445-0.526,0.673-0.794,0.684-0.806c0.326-0.335,0.619-0.492,0.879-0.47c0.749,0.055,1.123,0.397,1.123,1.025
		C60.521,5.362,60.314,5.803,59.901,6.243z"/>
	<path fill="#F7751E" d="M82.924,14.461c-0.076,0.456-0.354,0.685-0.832,0.685c-0.5,0-0.783-0.229-0.848-0.686V5.99
		c-1.426,0.891-3.83,2.315-7.212,4.271c-0.098,0.054-0.521-0.141-1.271-0.586c-1.358-0.813-3.405-2.039-6.143-3.676v8.477
		c-0.076,0.446-0.354,0.67-0.832,0.67c-0.38,0-0.646-0.19-0.799-0.571V4.336c0.131-0.348,0.37-0.522,0.718-0.522
		c0.25,0,0.511,0.092,0.782,0.277c0.936,0.63,2.158,1.386,3.669,2.266c2.282,1.315,3.538,2.044,3.767,2.185
		c1.663-0.989,4.157-2.473,7.485-4.451c0.119-0.087,0.281-0.185,0.488-0.293c0.076-0.022,0.152-0.033,0.229-0.033
		c0.195,0,0.377,0.073,0.545,0.22c0.17,0.146,0.254,0.301,0.254,0.464V14.461z"/>
	<path fill="#F7751E" d="M104.643,5.51h-7.551v9.164c-0.174,0.38-0.439,0.569-0.799,0.569c-0.369,0-0.641-0.19-0.814-0.57V5.51
		h-7.533c-0.391-0.172-0.586-0.441-0.586-0.807c0-0.43,0.232-0.699,0.701-0.807h16.467c0.457,0.087,0.686,0.359,0.686,0.815
		C105.213,5.091,105.022,5.357,104.643,5.51z"/>
	<path fill="#F7751E" d="M126.979,5.51h-7.549v9.164c-0.174,0.38-0.439,0.569-0.799,0.569c-0.369,0-0.643-0.19-0.816-0.57V5.51
		h-7.531c-0.393-0.172-0.588-0.441-0.588-0.807c0-0.43,0.234-0.699,0.701-0.807h16.469c0.455,0.087,0.684,0.359,0.684,0.815
		C127.549,5.091,127.36,5.357,126.979,5.51z"/>
</g>
</svg>
